<svg id="rev_SOLID" data-name="rev SOLID" xmlns="http://www.w3.org/2000/svg" viewBox="0 0 1000 383.19"><defs><style>.cls-1{fill:#fff;}</style></defs><circle cx="592.21" cy="191.6" r="63.87"/><path class="cls-1" d="M582.65,182.09l19.07,19.07h0a13.48,13.48,0,0,1-19.07-19.07Zm73.43,9.51a63.87,63.87,0,1,1-63.87-63.87A63.87,63.87,0,0,1,656.08,191.6Zm-6.84,0a57,57,0,0,0-97.38-40.3l21.61,21.6C555,179,542,191.6,542,191.6s22.47,21.87,50.19,21.87a60.1,60.1,0,0,0,18.67-3.16h0L632.51,232A56.84,56.84,0,0,0,649.24,191.6Zm-57-21.87a60,60,0,0,0-18.7,3.16h0l9.18,9.19a13.48,13.48,0,1,1,19.07,19.07l9.16,9.15h0c18.45-6.05,31.48-18.7,31.48-18.7S619.93,169.73,592.21,169.73Z"/><path class="cls-1" d="M255.22,192v-.35c0-35.11,26.47-63.87,64.4-63.87,23.28,0,37.22,7.76,48.69,19L351,166.72c-9.53-8.64-19.23-13.94-31.58-13.94-20.82,0-35.81,17.29-35.81,38.46v.36c0,21.17,14.64,38.81,35.81,38.81,14.11,0,22.76-5.65,32.46-14.47l17.29,17.47c-12.7,13.58-26.81,22.05-50.63,22.05C282.22,255.46,255.22,227.41,255.22,192Z"/><rect class="cls-1" x="381.15" y="129.85" width="27.17" height="123.5"/><path class="cls-1" d="M421.7,235.35l16.06-19.23c11.11,9.17,22.75,15,36.87,15,11.11,0,17.82-4.41,17.82-11.64v-.35c0-6.88-4.24-10.41-24.88-15.7-24.87-6.36-40.93-13.24-40.93-37.76v-.35c0-22.41,18-37.23,43.23-37.23,18,0,33.34,5.65,45.86,15.71l-14.11,20.46c-10.94-7.59-21.7-12.17-32.11-12.17s-15.88,4.76-15.88,10.76v.35c0,8.12,5.3,10.76,26.64,16.23,25.06,6.53,39.17,15.53,39.17,37.05v.35c0,24.53-18.7,38.29-45.34,38.29A78.6,78.6,0,0,1,421.7,235.35Z"/><path class="cls-1" d="M139.87,135H127.73v-5.13h31.13V135H146.72V253.34h-6.85Zm29.49-5.13h6.84v57.47h16.26V129.85h6.84V253.34h-6.84V192.45H176.2v60.89h-6.84Zm45.39,0h23.43V135H221.59v52.34h15.56v5.13H221.59v55.76h17.79v5.13H214.75Z"/><path class="cls-1" d="M680,135H667.83v-5.13H699V135H686.81V253.34H680Zm29.49-5.13h15.39c8.21,0,14,3.76,14,11.46v36.43c0,6.67-1.88,11.46-10.61,12.14v.35c6.16.51,10.61,3.59,10.61,11.12v52H732v-52c0-4.62-2.57-8.9-9.41-8.9H716.3v60.89h-6.84ZM723,187.32c5.82,0,9.07-2.74,9.07-8.21V142.68c0-5.31-2.91-7.7-8.38-7.7H716.3v52.34Zm53.52,29.93H759.56l-3.77,36.09h-6.15l13.85-123.49h9.58l14.2,123.49h-6.84Zm-.51-5.13-4.28-40.54c-1.37-12.31-3.08-24.8-3.42-37.29h-.34c-1.37,12.32-1.88,25-3.25,37.29l-4.45,40.54Zm21.91-69.62c0-8.55,5.48-13.34,14.54-13.34s13.86,4.79,13.86,13.34v20.36h-6.84V143.53c0-5-1.54-9.24-7-9.24-4.79,0-7.7,2.91-7.7,7.7V241.2c0,4.79,2.91,7.7,7.7,7.7,5.48,0,7-2.91,7-9.24v-21h6.84v22.07c0,8.55-4.79,13.34-13.86,13.34s-14.54-4.79-14.54-13.34Zm42.74-12.65h6.84V253.34h-6.84ZM847.47,188l16.93-58.15h6.16L853.62,188l18.65,65.34h-6.84Z"/></svg>