<svg id="rev_SOLID" data-name="rev SOLID" xmlns="http://www.w3.org/2000/svg" viewBox="0 0 974 1000"><defs><style>.cls-1{fill:#fff;}</style></defs><circle cx="688.95" cy="499.49" r="94.68"/><path class="cls-1" d="M189.36,500v-.53c0-52,39.23-94.68,95.47-94.68,34.52,0,55.18,11.51,72.19,28.25l-25.64,29.56C317.26,449.8,302.87,442,284.57,442c-30.87,0-53.1,25.63-53.1,57v.52c0,31.39,21.71,57.54,53.1,57.54,20.92,0,33.74-8.37,48.12-21.44l25.63,25.89c-18.83,20.14-39.75,32.69-75.06,32.69C229.38,594.17,189.36,552.59,189.36,500Z"/><rect class="cls-1" x="376.06" y="407.95" width="40.28" height="183.09"/><path class="cls-1" d="M674.78,485.4l28.27,28.27h0a20,20,0,0,1-28.27-28.27Zm108.86,14.09A94.69,94.69,0,1,1,689,404.81,94.68,94.68,0,0,1,783.64,499.49Zm-10.14,0a84.55,84.55,0,0,0-144.37-59.74l32,32c-27.32,9-46.63,27.71-46.63,27.71s33.32,32.43,74.41,32.43a88.8,88.8,0,0,0,27.68-4.68h0l32.07,32.07A84.28,84.28,0,0,0,773.5,499.49ZM689,467.07a89.17,89.17,0,0,0-27.73,4.69l-.05,0,13.61,13.62a20,20,0,1,1,28.27,28.27l13.58,13.57,0,0c27.35-9,46.69-27.73,46.69-27.73S730.05,467.07,689,467.07Z"/><path class="cls-1" d="M436.17,564.36,460,535.85c16.48,13.6,33.74,22.23,54.66,22.23,16.48,0,26.42-6.54,26.42-17.26v-.53c0-10.2-6.28-15.43-36.88-23.27-36.88-9.42-60.68-19.62-60.68-56v-.53c0-33.21,26.68-55.18,64.08-55.18,26.68,0,49.44,8.37,68,23.27L554.65,459c-16.21-11.24-32.17-18-47.6-18s-23.54,7.06-23.54,15.95v.52c0,12,7.85,16,39.5,24.07,37.13,9.67,58.06,23,58.06,54.92v.52c0,36.36-27.73,56.76-67.22,56.76A116.54,116.54,0,0,1,436.17,564.36Z"/><path class="cls-1" d="M478.28,634.15h-18v-7.61h46.16v7.61h-18V809.62H478.28ZM522,626.54h22.82c12.17,0,20.79,5.58,20.79,17v54c0,9.89-2.79,17-15.72,18v.51c9.13.76,15.72,5.33,15.72,16.49v77.08H555.47V732.54c0-6.85-3.8-13.19-14-13.19h-9.38v90.27H522Zm20,85.2c8.62,0,13.44-4.06,13.44-12.17v-54c0-7.86-4.31-11.41-12.43-11.41h-10.9v77.59Zm79.34,44.38h-25.1l-5.58,53.5h-9.13L602.1,626.54h14.2l21.05,183.08H627.21Zm-.76-7.61-6.34-60.1c-2-18.25-4.56-36.77-5.07-55.28h-.51c-2,18.26-2.79,37-4.81,55.28l-6.6,60.1ZM653.1,645.3c0-12.68,8.12-19.78,21.56-19.78s20.54,7.1,20.54,19.78v30.18H685.05V646.83c0-7.36-2.28-13.7-10.39-13.7-7.1,0-11.42,4.31-11.42,11.41V791.62c0,7.1,4.32,11.41,11.42,11.41,8.11,0,10.39-4.31,10.39-13.69V758.15H695.2v32.71c0,12.68-7.1,19.78-20.54,19.78s-21.56-7.1-21.56-19.78Zm63.35-18.76H726.6V809.62H716.45Zm10.15,86.21,25.1-86.21h9.13l-25.11,86.21,27.65,96.87H753.22Z"/><polygon class="cls-1" points="207.37 196.97 189.36 196.97 189.36 189.36 235.51 189.36 235.51 196.97 217.51 196.97 217.51 372.45 207.37 372.45 207.37 196.97"/><polygon class="cls-1" points="251.09 189.36 261.23 189.36 261.23 274.56 285.32 274.56 285.32 189.36 295.46 189.36 295.46 372.45 285.32 372.45 285.32 282.17 261.23 282.17 261.23 372.45 251.09 372.45 251.09 189.36"/><polygon class="cls-1" points="318.37 189.36 353.11 189.36 353.11 196.97 328.51 196.97 328.51 274.56 351.58 274.56 351.58 282.17 328.51 282.17 328.51 364.84 354.88 364.84 354.88 372.45 318.37 372.45 318.37 189.36"/></svg>